<?xml version="1.0" encoding="UTF-8" standalone="no"?>
<!-- Created with Inkscape (http://www.inkscape.org/) -->

<svg
   xmlns:svg="http://www.w3.org/2000/svg"
   xmlns="http://www.w3.org/2000/svg"
   version="1.1"
   width="305"
   height="50"
   viewBox="0 0 305 50"
   id="VARG"
   xml:space="preserve"><defs
   id="defs31" />
<path
   d="m 22.652,34.6025 c 0,8.937 -3.993,12.167 -10.646,12.167 H 2.5 V 4.1835002 h 9.506 c 7.414,0 9.315,4.3729997 9.315,11.5979998 0,5.323 -1.901,8.175 -5.132,8.365 3.611,0 6.463,3.612 6.463,10.456 l 0,0 z M 9.914,26.6175 v 15.02 h 1.901 c 2.282,0 2.852,-1.333 2.852,-7.795 0,-4.753 -0.57,-7.225 -3.042,-7.225 H 9.914 l 0,0 z m 0,-17.4900001 V 21.4845 h 1.901 c 1.901,0 2.282,-1.901 2.282,-5.514 0,-4.943 -0.38,-6.8430001 -2.852,-6.8430001 H 9.914 l 0,0 z"
   id="path3" />
<path
   d="m 64.667,24.9065 c 4.752,1.331 5.323,7.035 5.323,12.168 0,3.994 0.19,7.604 0.761,9.694 h -7.794 c -0.19,-1.711 -0.57,-2.471 -0.57,-6.465 0,-1.521 0,-3.229 0,-5.322 0,-3.421 -1.141,-5.893 -3.612,-6.654 h -0.38 v 18.441 H 50.601 V 4.1835002 h 11.406 c 5.323,0 8.936,3.0419999 8.936,10.8359998 -0.002,6.655 -2.854,9.507 -6.276,9.887 l 0,0 z M 58.393,9.5074999 V 21.8645 h 2.282 c 1.901,0 2.471,-1.331 2.471,-5.133 0,-6.274 -1.141,-7.2240001 -3.421,-7.2240001 h -1.332 l 0,0 z"
   id="path5" />
<path
   d="m 83.869,23.5765 c 0.38,5.703 0.38,7.224 0.38,12.357 0,3.231 0,10.835 0,10.835 H 77.215 V 4.1835002 h 7.034 c 0,0 3.232,12.5479998 3.992,15.2099998 0.761,2.661 1.331,4.752 1.711,6.653 -0.19,-4.182 -0.38,-9.315 -0.38,-13.498 0,-3.2310002 0,-8.3649999 0,-8.3649999 h 6.845 V 46.7685 h -6.274 c 0,0 -3.802,-13.118 -4.563,-15.779 -0.57,-2.091 -1.141,-4.372 -1.711,-7.413 l 0,0 z"
   id="path7" />
<polygon
   points="109.553,39.672 118.868,39.672 118.868,46.137 102.139,46.137 102.139,3.551 117.728,3.551 117.728,10.015 109.553,10.015 109.553,21.422 116.777,21.422 116.777,27.316 109.553,27.316 "
   transform="translate(1.122,0.63250015)"
   id="polygon9" />
<path
   d="m 131.018,36.8835 c 0,4.754 1.14,5.515 2.851,5.515 1.332,0 2.281,-0.761 2.281,-5.515 0,-4.183 -2.851,-7.224 -5.894,-11.026 -3.041,-3.423 -6.273,-8.175 -6.273,-12.167 0,-6.4639999 3.042,-10.0759999 8.935,-10.0759999 5.894,0 9.125,3.231 9.125,9.5059999 0,1.33 -0.379,2.472 -0.57,3.421 H 135.2 c 0,-0.76 0.19,-1.711 0.19,-3.041 0,-3.9930001 -0.571,-5.3239998 -2.281,-5.3239998 -1.711,0 -1.901,1.7109997 -1.901,4.7529998 0,3.802 3.042,6.845 5.513,10.076 3.612,4.563 6.464,8.176 6.464,12.547 0,6.846 -2.853,11.977 -9.506,11.977 -5.704,0 -9.506,-3.039 -9.506,-10.454 0,-1.711 0,-3.232 0.38,-4.564 l 6.845,-0.19 c -0.191,1.71 -0.38,2.661 -0.38,4.562 l 0,0 z"
   id="path11" />
<path
   d="m 195.468,23.5765 c 0.379,5.703 0.379,7.224 0.379,12.357 0,3.231 0,10.835 0,10.835 h -7.035 V 4.1835002 h 7.035 c 0,0 3.232,12.5479998 3.992,15.2099998 0.762,2.661 1.33,4.752 1.521,6.653 -0.19,-4.182 -0.19,-9.315 -0.19,-13.498 0,-3.2310002 0,-8.3649999 0,-8.3649999 h 6.845 V 46.7685 h -6.273 c 0,0 -3.803,-13.118 -4.563,-15.779 -0.573,-2.091 -1.142,-4.372 -1.711,-7.413 l 0,0 z"
   id="path13" />
<path
   d="m 233.679,25.4775 c 0,18.251 -3.041,22.052 -10.076,22.052 -6.463,0 -9.885,-2.851 -9.885,-22.052 0,-18.6319999 2.661,-21.8629998 9.885,-21.8629998 7.415,-0.001 10.076,3.231 10.076,21.8629998 l 0,0 z m -7.987,0 c 0,-6.654 0,-10.837 -0.188,-13.878 -0.19,-3.0420001 -0.761,-3.6129998 -1.901,-3.6129998 -1.142,0 -1.711,0.5699997 -1.899,3.6129998 -0.19,3.042 -0.19,7.224 -0.19,13.878 0,7.795 0,10.836 0.19,13.688 0.188,3.232 0.759,3.613 1.899,3.613 1.332,0 1.711,-0.19 1.901,-3.613 0.188,-3.042 0.188,-5.893 0.188,-13.688 l 0,0 z"
   id="path15" />
<path
   d="m 259.534,34.6025 c 0,8.937 -3.993,12.167 -10.646,12.167 h -9.507 V 4.1835002 h 9.507 c 7.414,0 9.315,4.3729997 9.315,11.5979998 0,5.323 -1.901,8.175 -5.133,8.365 3.613,0 6.464,3.612 6.464,10.456 l 0,0 z m -12.738,-7.985 v 15.02 h 1.902 c 2.279,0 2.854,-1.333 2.854,-7.795 0,-4.753 -0.572,-7.225 -3.043,-7.225 h -1.713 l 0,0 z m 0,-17.4900001 V 21.4845 h 1.902 c 1.898,0 2.279,-1.901 2.279,-5.514 0,-4.943 -0.569,-6.8430001 -2.851,-6.8430001 h -1.33 l 0,0 z"
   id="path17" />
<polygon
   points="271.529,39.672 280.465,39.672 280.465,46.137 263.736,46.137 263.736,3.551 271.529,3.551 "
   transform="translate(1.122,0.63250015)"
   id="polygon19" />
<polygon
   points="292.063,39.672 301.378,39.672 301.378,46.137 284.646,46.137 284.646,3.551 300.238,3.551 300.238,10.015 292.063,10.015 292.063,21.422 299.287,21.422 299.287,27.316 292.063,27.316 "
   transform="translate(1.122,0.63250015)"
   id="polygon21" />
<path
   d="M 25.503,46.7695 31.586,3.9945002 h 7.415 L 46.226,46.7695 h -7.984 l -0.761,-6.846 h -4.752 l -0.76,6.846 h -6.466 l 0,0 z m 7.795,-11.596 h 3.803 c 0,0 -0.571,-4.943 -0.951,-8.175 -0.19,-1.901 -0.951,-8.175 -1.141,-12.167 -0.19,4.183 -0.761,10.267 -0.951,12.167 -0.189,3.231 -0.76,8.175 -0.76,8.175 l 0,0 z"
   id="path23" />
<path
   d="m 179.877,24.5265 c -3.042,0 -5.133,1.901 -6.464,4.753 -1.331,2.851 -2.852,6.463 -3.803,8.364 -3.231,-5.702 -5.703,-10.075 -7.225,-14.067 2.471,-1.521 6.844,-3.613 9.506,-5.894 2.472,-2.282 3.612,-4.563 4.183,-7.035 0.761,-4.7529999 -1.902,-8.9349999 -7.984,-8.9349999 -5.133,0 -11.218,3.992 -12.356,10.6459999 -0.569,3.232 0.188,7.604 1.52,11.217 -4.562,3.041 -8.554,6.463 -9.694,11.787 -1.332,8.935 4.183,12.925 10.456,12.925 4.184,0 7.414,-1.9 10.076,-4.751 1.899,2.091 4.373,4.751 7.415,4.751 2.472,0 5.132,-1.521 7.224,-4.181 l -0.95,-1.33 c -1.9,1.899 -3.231,2.66 -4.373,2.66 -2.091,0 -3.991,-1.9 -5.894,-4.561 -0.188,-0.574 -0.379,-0.955 -0.57,-1.335 1.142,-2.279 1.9,-4.751 3.041,-7.033 1.902,-4.183 3.043,-5.704 4.756,-5.704 3.04,0 0.568,4.943 3.802,4.943 1.521,0 2.28,-1.14 2.47,-2.471 0.187,-1.707 -0.953,-4.749 -5.136,-4.749 l 0,0 z m -19.012,-13.308 c 0.38,-3.0419998 3.042,-6.2739998 7.034,-6.2739998 3.041,0 5.133,2.2819999 4.371,5.8939998 -0.188,1.331 -0.568,2.662 -1.898,4.373 -1.521,1.71 -6.465,4.752 -8.746,6.083 -1.143,-3.422 -1.522,-6.654 -0.761,-10.076 l 0,0 z m -1.139,34.221 c -5.894,0 -7.984,-4.94 -7.416,-8.746 0.761,-4.752 3.042,-7.604 5.892,-10.266 2.093,5.134 4.755,10.266 8.557,15.591 -2.092,2.469 -3.991,3.421 -7.033,3.421 l 0,0 z"
   id="path25"
   style="fill:#d15400" />
<path
   d="m 159.345,9.5074999 c 0,0 -3.992,6.2740001 1.711,18.6310001 4.563,10.266 10.076,15.971 10.076,15.971 0,0 -5.515,-7.604 -9.316,-16.729 -4.564,-11.219 -2.471,-17.8730001 -2.471,-17.8730001 l 0,0 z"
   id="path27"
   style="fill:#ffffff" />
</svg>